<?xml version="1.0" encoding="utf-8"?>
<!-- Generator: Adobe Illustrator 16.0.0, SVG Export Plug-In . SVG Version: 6.00 Build 0)  -->
<!DOCTYPE svg PUBLIC "-//W3C//DTD SVG 1.1//EN" "http://www.w3.org/Graphics/SVG/1.1/DTD/svg11.dtd">
<svg version="1.1" id="Calque_1" xmlns="http://www.w3.org/2000/svg" xmlns:xlink="http://www.w3.org/1999/xlink" x="0px" y="0px"
	 width="257.1px" height="52.5px" viewBox="0 0 257.1 52.5" enable-background="new 0 0 257.1 52.5" xml:space="preserve">
<g>
	<path d="M8,8.5h20.6V32c0,4.4-1,7.7-3.1,10s-5.1,3.4-9,3.4c-1,0-2-0.1-3-0.3c-1-0.2-1.9-0.4-2.7-0.7c-0.8-0.3-1.6-0.6-2.2-1
		c-0.6-0.3-1-0.7-1.3-1l1.9-3.4c0.4,0.2,0.8,0.5,1.3,0.8c0.5,0.3,1,0.5,1.6,0.8c0.6,0.3,1.2,0.5,1.9,0.6c0.7,0.2,1.5,0.3,2.4,0.3
		c2.6,0,4.6-0.8,5.9-2.4c1.3-1.6,2-4.3,2-7.9V12.4H8V8.5z"/>
	<path d="M39.9,39.8c1,0.6,2.2,1,3.5,1.4c1.3,0.4,2.6,0.5,3.9,0.5c1.1,0,2.2-0.1,3.2-0.3c1-0.2,1.9-0.6,2.6-1.1
		c0.7-0.5,1.3-1.1,1.8-1.9c0.4-0.8,0.6-1.7,0.6-2.7c0-1.4-0.5-2.6-1.4-3.5c-1-0.9-2.1-1.7-3.6-2.4c-1.4-0.7-3-1.4-4.6-2
		c-1.7-0.7-3.2-1.4-4.6-2.3c-1.4-0.9-2.6-2-3.6-3.3c-1-1.3-1.4-3-1.4-5c0-1.4,0.3-2.7,0.9-3.8c0.6-1.1,1.4-2.1,2.4-2.9
		c1-0.8,2.3-1.4,3.8-1.8c1.5-0.4,3.1-0.6,4.9-0.6c2.1,0,4,0.1,5.7,0.4c1.7,0.3,3,0.7,4.1,1.2l0.1-0.1v0.1h0.1l-0.1,0.2V18h-3.8v-5.6
		c-0.9-0.2-1.8-0.4-2.9-0.5c-1-0.1-2.1-0.2-3.3-0.2c-1.1,0-2.2,0.1-3.1,0.4c-0.9,0.3-1.7,0.6-2.3,1.1c-0.6,0.5-1.1,1-1.5,1.6
		c-0.3,0.6-0.5,1.3-0.5,2c0,1.4,0.5,2.5,1.4,3.4c1,0.9,2.1,1.7,3.6,2.4c1.4,0.7,3,1.4,4.6,2.1c1.7,0.7,3.2,1.5,4.6,2.4
		c1.4,0.9,2.6,2,3.6,3.3c1,1.3,1.4,2.9,1.4,4.8c0,1.6-0.3,3-0.9,4.2c-0.6,1.2-1.4,2.3-2.4,3.2c-1.1,0.9-2.4,1.6-3.9,2.1
		c-1.5,0.5-3.3,0.7-5.2,0.7c-1.3,0-2.6-0.1-3.7-0.3c-1.2-0.2-2.3-0.5-3.2-0.8c-1-0.3-1.9-0.6-2.7-1c-0.8-0.3-1.4-0.6-1.8-0.9
		l0.1-0.2V34h3.8V39.8z"/>
	<path d="M63.7,26.7c0-6,1.1-10.7,3.2-13.9c2.1-3.3,5.4-4.9,9.8-4.9c2.4,0,4.5,0.5,6.1,1.4c1.7,0.9,3,2.2,4.1,3.8
		c1,1.6,1.8,3.6,2.2,5.9c0.4,2.3,0.7,4.9,0.7,7.7c0,6-1.1,10.7-3.2,13.9c-2.1,3.3-5.4,4.9-9.9,4.9c-2.4,0-4.4-0.5-6.1-1.4
		s-3-2.2-4-3.8c-1-1.6-1.8-3.6-2.2-5.9C64,32.1,63.7,29.5,63.7,26.7z M68.3,26.7c0,2,0.1,3.9,0.4,5.7c0.3,1.8,0.7,3.4,1.4,4.8
		c0.7,1.4,1.5,2.5,2.6,3.3c1.1,0.8,2.5,1.2,4.1,1.2c3,0,5.2-1.2,6.5-3.6c1.4-2.4,2.1-6.2,2.1-11.3c0-2-0.1-3.9-0.4-5.7
		s-0.7-3.4-1.4-4.8c-0.7-1.4-1.5-2.5-2.7-3.3c-1.1-0.8-2.5-1.2-4.2-1.2c-3,0-5.1,1.2-6.5,3.7C68.9,17.8,68.3,21.6,68.3,26.7z"/>
	<path d="M100.6,22.1l-2.8-5.3h-0.2l0.5,5.3v22.8H94V8.5h2.8l14.6,22.7l2.7,5h0.3l-0.6-5V8.5h4.1v36.4h-2.8L100.6,22.1z"/>
	<path fill="#666766" d="M122.4,19.1v-0.2c0-5.5,4-10.7,11.7-10.7c7,0,11.5,4.3,11.5,9.9c0,4.6-2.9,7.6-6.2,11.4l-9.2,10.7v0.1h16.1
		v4.6h-23.6v-3.4L136,26.4c2-2.2,4.1-4.6,4.1-7.8c0-3.5-2.6-5.8-6.2-5.8c-4,0-6.3,2.9-6.3,6.2c0,0.1,0,0.2,0,0.2H122.4z"/>
	<path fill="#EE5237" d="M151.6,35.8c0.1,3.3,2.8,7.9,10.3,7.9c6,0,10-3.3,10-7.9c0-4.4-2.9-6.2-8.4-7.7l-4.7-1.3
		c-4.9-1.3-8.2-4-8.2-9.1c0-5.9,4.6-9.7,11.5-9.7c7,0,11.3,4,11.3,9.1h-2.2c-0.1-3.3-2.7-7.1-9.1-7.1c-5.7,0-9.3,3-9.3,7.6
		c0,4,2.4,6,7,7.2l4.5,1.2c6.2,1.7,9.8,3.8,9.8,9.5c0,6.2-5.2,10-12.4,10c-9.1,0-12.2-5.9-12.2-9.9H151.6z"/>
	<path fill="#EE5237" d="M203.1,44.9H201l-7.7-24.2h-0.1l-7.6,24.2h-2.2l-7.6-27.3h2.4l6.2,24.2h0.1l7.6-24.2h2.2l7.6,24.2h0.2
		l6.3-24.2h2.2L203.1,44.9z"/>
	<path fill="#EE5237" d="M215.5,8.1c1.1,0,1.9,0.8,1.9,1.9c0,1.1-0.8,1.9-1.9,1.9c-1,0-1.8-0.8-1.8-1.9C213.6,9,214.5,8.1,215.5,8.1
		z M214.5,17.6h2.1v27.3h-2.1V17.6z"/>
	<path fill="#EE5237" d="M225.2,19.5h-4.6v-1.9h4.6v-3.4c0-5,2.3-7,7.1-7c1.3,0,2.3,0.2,2.7,0.3v1.8c-0.5-0.1-1.6-0.2-2.7-0.2
		c-3.4,0-5.1,1.2-5.1,5v3.6h7.4v1.9h-7.4v25.4h-2.1V19.5z"/>
	<path fill="#EE5237" d="M239.7,11h2.1v6.6h7.3v1.9h-7.3v19.3c0,3.3,1.5,4.3,5.1,4.3c0.8,0,2.1-0.1,2.6-0.2v1.8
		c-0.5,0.1-1.7,0.2-2.8,0.2c-5.3,0-7-1.7-7-6.5v-19h-5.1v-1.9h5.1V11z"/>
</g>
</svg>
